<?xml version="1.0" standalone="no"?>
<!DOCTYPE svg PUBLIC "-//W3C//DTD SVG 20010904//EN"
 "http://www.w3.org/TR/2001/REC-SVG-20010904/DTD/svg10.dtd">
<svg version="1.0" xmlns="http://www.w3.org/2000/svg"
 width="256.000000pt" height="256.000000pt" viewBox="0 0 256.000000 256.000000"
 preserveAspectRatio="xMidYMid meet">

<g transform="translate(0.000000,256.000000) scale(0.100000,-0.100000)"
fill="#000000" stroke="none">
<path d="M1122 2549 c-472 -64 -865 -373 -1036 -815 -145 -375 -97 -816 125
-1153 438 -665 1368 -775 1944 -230 515 488 539 1291 54 1804 -239 252 -546
389 -894 400 -66 2 -153 -1 -193 -6z m242 -592 c44 -61 81 -119 83 -128 4 -13
-37 -173 -93 -371 -3 -10 -1 -18 4 -18 5 0 37 70 72 155 57 142 65 155 84 149
64 -19 85 -62 72 -152 -5 -40 -4 -45 8 -32 8 8 26 73 41 145 14 71 29 133 31
137 12 19 202 103 211 94 3 -3 -27 -80 -67 -173 -86 -199 -93 -246 -47 -306
55 -72 45 -150 -29 -237 -63 -74 -45 -77 63 -9 38 24 57 17 96 -35 l27 -35
-96 -75 c-52 -41 -94 -78 -92 -83 4 -10 -1 -12 94 41 45 25 88 46 96 46 8 0
31 -18 53 -40 37 -38 38 -40 21 -62 -49 -67 -116 -172 -112 -175 2 -3 39 23
81 56 42 34 81 61 88 61 19 0 67 -53 67 -73 0 -27 -52 -115 -100 -170 -50 -56
-143 -104 -221 -113 l-56 -6 -7 32 c-3 18 -6 69 -6 114 0 80 -30 208 -37 161
-2 -11 -6 -30 -8 -42 -3 -12 -34 -54 -70 -95 -35 -40 -81 -92 -101 -116 -48
-56 -147 -105 -224 -110 -84 -6 -180 39 -252 118 -142 155 -167 190 -168 235
-2 29 -2 29 -23 -15 -16 -35 -22 -71 -25 -163 l-5 -118 -56 6 c-69 8 -139 30
-168 53 -38 30 -163 204 -163 228 0 26 62 79 82 71 7 -2 50 -34 96 -71 45 -37
82 -64 82 -61 0 8 -75 119 -112 166 -15 20 -28 43 -28 50 0 19 61 79 81 79 9
0 53 -21 98 -46 45 -25 86 -44 92 -42 6 2 -32 37 -85 78 -52 41 -95 80 -96 86
0 17 68 74 88 74 10 0 42 -16 72 -34 30 -19 57 -31 58 -25 2 5 -12 29 -31 52
-76 94 -85 150 -37 242 17 31 30 70 30 85 0 15 -33 112 -74 214 -41 102 -70
186 -65 186 13 0 192 -79 202 -89 5 -5 22 -69 37 -141 16 -72 30 -134 33 -136
2 -2 7 23 10 56 6 67 22 93 68 109 34 12 27 23 111 -184 72 -178 76 -155 13
74 -25 89 -45 174 -45 187 0 23 154 254 169 254 3 0 42 -51 85 -113z"/>
<path d="M1175 1830 c-25 -48 -24 -132 2 -191 37 -83 46 -74 38 36 -4 54 -10
119 -14 144 l-7 46 -19 -35z"/>
<path d="M1358 1854 c-3 -5 -9 -56 -12 -114 -4 -58 -9 -121 -12 -140 -5 -34
-5 -34 12 -15 55 66 73 188 36 247 -11 16 -22 26 -24 22z"/>
<path d="M1237 1528 c12 -49 53 -66 73 -29 16 32 13 54 -7 46 -22 -9 -34 -9
-55 0 -13 5 -15 2 -11 -17z"/>
<path d="M1581 1492 c-2 -43 -31 -82 -79 -106 -26 -13 -56 -31 -67 -40 -20
-15 -20 -15 3 -16 70 -1 165 105 149 167 -4 14 -5 13 -6 -5z"/>
<path d="M827 1443 c-7 -11 9 -64 28 -94 10 -16 107 -69 190 -103 55 -23 35
-6 -55 46 -45 27 -84 58 -97 79 -39 60 -59 83 -66 72z"/>
<path d="M994 1413 c19 -38 66 -73 112 -83 30 -7 33 -6 23 7 -7 8 -31 24 -53
35 -23 11 -54 32 -70 47 l-28 26 16 -32z"/>
<path d="M1697 1404 c-22 -42 -60 -73 -151 -123 -42 -23 -76 -43 -76 -46 0 -6
64 22 151 66 78 39 106 72 97 116 -3 14 -7 12 -21 -13z"/>
<path d="M1176 1330 c7 -52 30 -99 72 -152 l29 -37 20 22 c33 37 73 101 73
117 -1 8 -9 -1 -20 -20 -10 -19 -32 -50 -48 -69 l-29 -35 -33 49 c-19 27 -42
77 -52 110 -16 55 -17 56 -12 15z"/>
<path d="M1371 1314 c0 -11 3 -14 6 -6 3 7 2 16 -1 19 -3 4 -6 -2 -5 -13z"/>
<path d="M962 1142 c-28 -61 -34 -120 -18 -204 7 -42 6 -47 -13 -53 -12 -3
-21 -12 -21 -19 0 -21 153 -227 199 -269 38 -34 81 -49 81 -28 0 5 -16 23 -36
39 l-36 30 63 31 c34 17 77 31 95 31 26 0 111 -32 153 -57 2 -1 -11 -19 -30
-40 -29 -34 -31 -38 -14 -42 22 -4 33 8 168 182 101 130 105 137 84 137 -33 0
-39 26 -22 98 20 81 10 135 -34 184 l-27 30 -120 -47 c-73 -30 -134 -48 -159
-48 -25 0 -87 19 -163 51 l-124 50 -26 -56z m568 -51 c-32 -65 -93 -91 -154
-68 -16 6 -3 18 75 66 52 32 95 55 97 50 2 -4 -6 -26 -18 -48z m-424 -3 c46
-28 84 -55 84 -59 0 -13 -78 -21 -100 -9 -37 20 -99 120 -74 120 3 0 43 -23
90 -52z"/>
</g>
</svg>
